<svg xmlns="http://www.w3.org/2000/svg" viewBox="0 0 36 36">
    <defs>
        <style>.a{fill:none;}</style>
    </defs>
    <rect class="a" width="36" height="36"/>
    <path d="M22.5,6.06v5.5a.44.44,0,0,0,.44.44h5.5a.44.44,0,0,0,.31-.75l-5.5-5.5A.44.44,0,0,0,22.5,6.06Z"/>
    <path d="M29,13.75H21.64a.89.89,0,0,1-.89-.89V5.5A1.25,1.25,0,0,0,19.5,4.25H7A1.25,1.25,0,0,0,5.75,5.5v26A1.25,1.25,0,0,0,7,32.75H29a1.25,1.25,0,0,0,1.25-1.25V15A1.25,1.25,0,0,0,29,13.75Zm-17-1.5h3.5a1.25,1.25,0,0,1,0,2.5H12a1.25,1.25,0,0,1,0-2.5Zm12.5,14.5H12a1.25,1.25,0,0,1,0-2.5H24.5a1.25,1.25,0,0,1,0,2.5Zm0-6H12a1.25,1.25,0,0,1,0-2.5H24.5a1.25,1.25,0,0,1,0,2.5Z"/>
</svg>