<svg xmlns="http://www.w3.org/2000/svg" viewBox="0 0 36 36">
    <defs>
        <style>.a{fill:none;}</style>
    </defs>
    <rect class="a" width="36" height="36"/>
    <path d="M8.17,15.52a4,4,0,1,1,4-4A4,4,0,0,1,8.17,15.52Z"/>
    <path d="M27.86,15.52a4,4,0,1,1,4-4A4,4,0,0,1,27.86,15.52Z"/>
    <path d="M9.59,16.53A5.88,5.88,0,0,0,7,16.45a6.28,6.28,0,0,0-4.95,6.23v6.68a1.23,1.23,0,0,0,1.23,1.23h5.2v-8A9.42,9.42,0,0,1,10,17.5.65.65,0,0,0,9.59,16.53Z"/>
    <path d="M28.46,16.38a5.92,5.92,0,0,0-1.89.1.65.65,0,0,0-.41,1,9.48,9.48,0,0,1,1.48,5.1v8h5a1.23,1.23,0,0,0,1.23-1.23V22.68A6.24,6.24,0,0,0,28.46,16.38Z"/>
    <path d="M18.1,14.28A4.9,4.9,0,1,1,23,9.38,4.91,4.91,0,0,1,18.1,14.28Z"/>
    <path d="M24.16,32.6H12a1.24,1.24,0,0,1-1.25-1.24V23.24a7.53,7.53,0,0,1,6.42-7.58,7.32,7.32,0,0,1,8.22,7.26v8.44A1.24,1.24,0,0,1,24.16,32.6Z"/>
</svg>