<svg xmlns="http://www.w3.org/2000/svg" viewBox="0 0 36 36">
    <defs>
        <style>.a{fill:none;}</style>
    </defs>
    <rect class="a" width="36" height="36"/>
    <path d="M8.17,15.73a4.21,4.21,0,1,1,4.2-4.21A4.21,4.21,0,0,1,8.17,15.73Zm0-6.24a2,2,0,1,0,2,2A2,2,0,0,0,8.17,9.49Z"/>
    <path d="M27.86,15.73a4.21,4.21,0,1,1,4.2-4.21A4.21,4.21,0,0,1,27.86,15.73Zm0-6.24a2,2,0,1,0,2,2A2,2,0,0,0,27.86,9.49Z"/>
    <path d="M18.1,14.75a5.38,5.38,0,1,1,5.38-5.37A5.38,5.38,0,0,1,18.1,14.75Zm0-8.29A2.92,2.92,0,1,0,21,9.38,2.92,2.92,0,0,0,18.1,6.46Z"/>
    <path d="M24.51,33H11.65a1.23,1.23,0,0,1-1.23-1.23v-8.9a7.66,7.66,0,1,1,15.32,0v8.9A1.23,1.23,0,0,1,24.51,33ZM12.88,30.54h10.4V22.87a5.2,5.2,0,0,0-10.4,0Z"/>
    <path d="M4.55,28.13V22.42a3.61,3.61,0,0,1,3.61-3.61,3.56,3.56,0,0,1,2.77,1.33,7.66,7.66,0,0,1,1.3-2.21A6.06,6.06,0,0,0,2.09,22.42v6.94a1.23,1.23,0,0,0,1.23,1.23h7.1V28.13Z"/>
    <path d="M27.84,16.35a6.05,6.05,0,0,0-4,1.5A7.64,7.64,0,0,1,25.18,20a3.6,3.6,0,0,1,6.27,2.42v5.71H25.74v2.46h6.94a1.23,1.23,0,0,0,1.23-1.23V22.42A6.07,6.07,0,0,0,27.84,16.35Z"/>
</svg>