<?xml version="1.0" encoding="UTF-8"?>
<svg xmlns="http://www.w3.org/2000/svg" viewBox="0 0 36 36">
    <defs>
        <style>.c{fill:none;}</style>
    </defs>
    <g id="a">
        <rect class="c" width="36" height="36"/>
    </g>
    <g id="b">
        <path d="M27.57,9.1h-2.47v-1.79c0-1.88-1.53-3.4-3.4-3.4h-7.4c-1.88,0-3.4,1.53-3.4,3.4v1.79h-2.47c-2.77,0-5.03,2.26-5.03,5.03v13.44c0,2.77,2.26,5.03,5.03,5.03H27.57c2.77,0,5.03-2.26,5.03-5.03V14.13c0-2.77-2.26-5.03-5.03-5.03Zm-14.47-1.79c0-.66,.54-1.2,1.2-1.2h7.4c.66,0,1.2,.54,1.2,1.2v1.79H13.1v-1.79Zm9,12.7c0,.61-.49,1.1-1.1,1.1h-6c-.61,0-1.1-.49-1.1-1.1s.49-1.1,1.1-1.1h6c.61,0,1.1,.49,1.1,1.1Zm5.9,6.1H8c-.61,0-1.1-.49-1.1-1.1s.49-1.1,1.1-1.1H28c.61,0,1.1,.49,1.1,1.1s-.49,1.1-1.1,1.1Z"/>
    </g>
</svg>