<svg xmlns="http://www.w3.org/2000/svg" viewBox="0 0 36 36">
    <defs>
        <style>.a{fill:none;}</style>
    </defs>
    <rect class="a" width="36" height="36"/>
    <path d="M11.5,9.9a1.2,1.2,0,0,1-1.2-1.2v-4a1.2,1.2,0,1,1,2.4,0v4A1.2,1.2,0,0,1,11.5,9.9Z"/>
    <path d="M24.8,9.9a1.2,1.2,0,0,1-1.2-1.2v-4a1.2,1.2,0,1,1,2.4,0v4A1.2,1.2,0,0,1,24.8,9.9Z"/>
    <path d="M28.84,5.62H26.7V8.7a1.9,1.9,0,1,1-3.8,0V5.62H13.4V8.7a1.9,1.9,0,0,1-3.8,0V5.62H7.16A3.46,3.46,0,0,0,3.8,9.15V27.87A3.45,3.45,0,0,0,7.16,31.4H28.84a3.45,3.45,0,0,0,3.36-3.53V9.15A3.46,3.46,0,0,0,28.84,5.62ZM9,11.5H27a1.2,1.2,0,1,1,0,2.4H9a1.2,1.2,0,1,1,0-2.4Zm1.31,13.4H9a1.2,1.2,0,0,1,0-2.4h1.31a1.2,1.2,0,1,1,0,2.4Zm0-6H9a1.2,1.2,0,0,1,0-2.4h1.31a1.2,1.2,0,1,1,0,2.4Zm5.66,6H14.66a1.2,1.2,0,0,1,0-2.4H16a1.2,1.2,0,1,1,0,2.4Zm0-6H14.66a1.2,1.2,0,0,1,0-2.4H16a1.2,1.2,0,1,1,0,2.4Zm5.66,6H20.32a1.2,1.2,0,1,1,0-2.4h1.31a1.2,1.2,0,0,1,0,2.4Zm0-6H20.32a1.2,1.2,0,1,1,0-2.4h1.31a1.2,1.2,0,0,1,0,2.4Zm5.73,6H26a1.2,1.2,0,1,1,0-2.4h1.32a1.2,1.2,0,1,1,0,2.4Zm0-6H26a1.2,1.2,0,1,1,0-2.4h1.32a1.2,1.2,0,1,1,0,2.4Z"/>
</svg>