<?xml version="1.0" encoding="UTF-8"?>
<svg xmlns="http://www.w3.org/2000/svg" viewBox="0 0 36 36">
    <defs>
        <style>.c{fill:none;}</style>
    </defs>
    <g id="a">
        <rect class="c" width="36" height="36"/>
    </g>
    <g id="b">
        <g>
            <path d="M25.41,3.25H10.59c-4.05,0-7.34,3.29-7.34,7.34v14.82c0,4.05,3.29,7.34,7.34,7.34h14.82c4.05,0,7.34-3.29,7.34-7.34V10.59c0-4.05-3.29-7.34-7.34-7.34Zm-7.85,4.78c2.86,0,5.19,2.33,5.19,5.19s-2.33,5.19-5.19,5.19-5.19-2.33-5.19-5.19,2.33-5.19,5.19-5.19Zm8.69,19.11c0,.69-.56,1.25-1.25,1.25s-1.25-.56-1.25-1.25v-1.6c0-2.25-1.45-4.08-3.24-4.08h-5.03c-1.78,0-3.24,1.83-3.24,4.08v1.6c0,.69-.56,1.25-1.25,1.25s-1.25-.56-1.25-1.25v-1.6c0-3.63,2.57-6.58,5.74-6.58h5.03c3.16,0,5.74,2.95,5.74,6.58v1.6Z"/>
            <circle cx="17.56" cy="13.21" r="2.69"/>
        </g>
    </g>
</svg>