<svg xmlns="http://www.w3.org/2000/svg" viewBox="0 0 36 36">
    <defs>
        <style>.a,.b{fill:none;}.b{stroke:#000;stroke-linecap:round;stroke-linejoin:round;stroke-width:2.4px;}</style>
    </defs>
    <rect class="a" width="36" height="36"/>
    <line class="b" x1="5" y1="12.7" x2="31" y2="12.7"/>
    <line class="b" x1="11.5" y1="4.7" x2="11.5" y2="8.7"/>
    <line class="b" x1="24.8" y1="4.7" x2="24.8" y2="8.7"/>
    <line class="b" x1="9" y1="17.7" x2="10.31" y2="17.7"/>
    <line class="b" x1="14.66" y1="17.7" x2="15.97" y2="17.7"/>
    <line class="b" x1="20.32" y1="17.7" x2="21.63" y2="17.7"/>
    <line class="b" x1="26.04" y1="17.7" x2="27.36" y2="17.7"/>
    <line class="b" x1="9" y1="23.7" x2="10.31" y2="23.7"/>
    <line class="b" x1="14.66" y1="23.7" x2="15.97" y2="23.7"/>
    <line class="b" x1="20.32" y1="23.7" x2="21.63" y2="23.7"/>
    <line class="b" x1="26.04" y1="23.7" x2="27.36" y2="23.7"/>
    <path class="b"
          d="M7.71,6.82H7.16A2.26,2.26,0,0,0,5,9.15V27.87A2.25,2.25,0,0,0,7.16,30.2H28.84A2.25,2.25,0,0,0,31,27.87V9.15a2.26,2.26,0,0,0-2.16-2.33h-.55"/>
    <line class="b" x1="21" y1="6.82" x2="15" y2="6.82"/>
</svg>