<svg xmlns="http://www.w3.org/2000/svg" viewBox="0 0 36 36">
    <defs>
        <style>.a{fill:none;}</style>
    </defs>
    <rect class="a" width="36" height="36"/>
    <rect x="27.71" y="2.72" width="3.85" height="7.27" transform="translate(4.18 22.82) rotate(-45)"/>
    <polygon points="11.86 19 11 25 17 24.14 11.86 19"/>
    <rect x="13.56" y="11.01" width="15.59" height="7.27" transform="translate(-4.1 19.39) rotate(-45)"/>
    <path d="M19.23,27.14a3,3,0,0,1-.77.45l-.34.12a3.21,3.21,0,0,1-.59.14l-6,.86a3,3,0,0,1-.53,0,3.76,3.76,0,0,1-3.12-1.66,3.88,3.88,0,0,1-.57-2.74l.84-5.88a3.68,3.68,0,0,1,.13-.58l.14-.38a3.3,3.3,0,0,1,.45-.76l.06-.12.28-.28L20,5.57a.78.78,0,0,0-.55-1.32H5.5A1.25,1.25,0,0,0,4.25,5.5v25A1.25,1.25,0,0,0,5.5,31.75h25a1.25,1.25,0,0,0,1.25-1.25v-14A.77.77,0,0,0,30.43,16Z"/>
</svg>