<?xml version="1.0" encoding="UTF-8"?>
<svg xmlns="http://www.w3.org/2000/svg" viewBox="0 0 36 36">
    <defs>
        <style>.c{fill:none;}</style>
    </defs>
    <g id="a">
        <rect class="c" width="36" height="36"/>
    </g>
    <g id="b">
        <path d="M26.41,3.4H9.59c-2.59,0-4.69,2.24-4.69,4.99V27.61c0,2.75,2.11,4.99,4.69,4.99h13.02c.14,0,.29-.03,.42-.09,.14-.06,.26-.14,.36-.24h0l7.38-7.5h0s.03-.06,.05-.09c.07-.08,.14-.17,.18-.27,.04-.1,.05-.2,.06-.3,0-.04,.02-.08,.02-.12V8.39c0-2.75-2.11-4.99-4.69-4.99Zm-15.41,5.5h14c.61,0,1.1,.49,1.1,1.1s-.49,1.1-1.1,1.1H11c-.61,0-1.1-.49-1.1-1.1s.49-1.1,1.1-1.1Zm0,5.33h14c.61,0,1.1,.49,1.1,1.1s-.49,1.1-1.1,1.1H11c-.61,0-1.1-.49-1.1-1.1s.49-1.1,1.1-1.1Zm7,12.87h-7c-.61,0-1.1-.49-1.1-1.1s.49-1.1,1.1-1.1h7c.61,0,1.1,.49,1.1,1.1s-.49,1.1-1.1,1.1Zm-7-5.33c-.61,0-1.1-.49-1.1-1.1s.49-1.1,1.1-1.1h14c.61,0,1.1,.49,1.1,1.1s-.49,1.1-1.1,1.1H11Zm12.72,7.05v-.92c0-1.54,1.12-2.79,2.49-2.79h1.16l-3.66,3.72Z"/>
    </g>
</svg>