<svg xmlns="http://www.w3.org/2000/svg" viewBox="0 0 36 36">
    <defs>
        <style>.a{fill:none;}</style>
    </defs>
    <rect class="a" width="36" height="36"/>
    <path d="M27.57,32.6H8.43a5,5,0,0,1-5-5V14.13a5,5,0,0,1,5-5H12a1.1,1.1,0,0,1,0,2.2H8.43A2.83,2.83,0,0,0,5.6,14.13V27.57A2.83,2.83,0,0,0,8.43,30.4H27.57a2.83,2.83,0,0,0,2.83-2.83V14.13a2.83,2.83,0,0,0-2.83-2.83H24a1.1,1.1,0,0,1,0-2.2h3.57a5,5,0,0,1,5,5V27.57A5,5,0,0,1,27.57,32.6Z"/>
    <path d="M25.1,11.3H10.9v-4a3.41,3.41,0,0,1,3.4-3.4h7.4a3.41,3.41,0,0,1,3.4,3.4Zm-12-2.2h9.8V7.3a1.2,1.2,0,0,0-1.2-1.2H14.3a1.2,1.2,0,0,0-1.2,1.2Z"/>
    <path d="M31,26.1H5a1.1,1.1,0,1,1,0-2.2H31a1.1,1.1,0,0,1,0,2.2Z"/>
    <path d="M21,21.1H15a1.1,1.1,0,1,1,0-2.2h6a1.1,1.1,0,0,1,0,2.2Z"/>
</svg>