<svg xmlns="http://www.w3.org/2000/svg" viewBox="0 0 36 36">
    <defs>
        <style>.a{fill:none;}</style>
    </defs>
    <rect class="a" width="36" height="36"/>
    <path d="M29,32.75H7A1.25,1.25,0,0,1,5.75,31.5V5.5A1.25,1.25,0,0,1,7,4.25H20.5A1.25,1.25,0,0,1,21.75,5.5v7.25H29A1.25,1.25,0,0,1,30.25,14V31.5A1.25,1.25,0,0,1,29,32.75ZM8.25,30.25h19.5v-15H20.5A1.25,1.25,0,0,1,19.25,14V6.75h-11Z"/>
    <path d="M29,15.25H20.5A1.25,1.25,0,0,1,19.25,14V5.5a1.25,1.25,0,0,1,2.13-.88l8.5,8.5A1.24,1.24,0,0,1,29,15.25Zm-7.25-2.5H26L21.75,8.52Z"/>
    <path d="M15.5,14.75H12a1.25,1.25,0,0,1,0-2.5h3.5a1.25,1.25,0,0,1,0,2.5Z"/>
    <path d="M24.5,20.75H12a1.25,1.25,0,0,1,0-2.5H24.5a1.25,1.25,0,0,1,0,2.5Z"/>
    <path d="M24.5,26.75H12a1.25,1.25,0,0,1,0-2.5H24.5a1.25,1.25,0,0,1,0,2.5Z"/>
</svg>