<svg xmlns="http://www.w3.org/2000/svg" viewBox="0 0 36 36">
    <defs>
        <style>.a{fill:none;}</style>
    </defs>
    <rect class="a" width="36" height="36"/>
    <rect class="a" width="36" height="36"/>
    <circle cx="12.75" cy="23.75" r="1.25"/>
    <path d="M24.94,5.93a6.61,6.61,0,0,1,1.65-.17V4.1a1.25,1.25,0,0,0-1.25-1.25H5.5A1.25,1.25,0,0,0,4.25,4.1V31.5A1.25,1.25,0,0,0,5.5,32.75H25.34a1.25,1.25,0,0,0,1.25-1.25v-.25H20.21A3.26,3.26,0,0,1,17,28a3.29,3.29,0,0,1,.44-1.61A3.23,3.23,0,0,1,17,24.78V24.3A6.63,6.63,0,0,1,21.45,18a12.37,12.37,0,0,0-1-2.33,6.71,6.71,0,0,1-.76-3.65h-9.6a1.25,1.25,0,0,1,0-2.5H20.39a6.79,6.79,0,0,1,3.7-3.37A4.92,4.92,0,0,1,24.94,5.93ZM12.75,27A3.25,3.25,0,1,1,16,23.75,3.26,3.26,0,0,1,12.75,27ZM10.13,15.23h8.49a1.25,1.25,0,0,1,0,2.5H10.13a1.25,1.25,0,1,1,0-2.5Z"/>
    <path d="M29.64,19.94h-.52A11.09,11.09,0,0,1,30.5,14.7,4.52,4.52,0,0,0,29.33,9a4.55,4.55,0,0,0-3.89-.87,4.55,4.55,0,0,0-3,6.54A12.39,12.39,0,0,1,24,19.94h-.47a4.37,4.37,0,0,0-4.36,4.36v.48a1,1,0,0,0,1,1H33a1,1,0,0,0,1-1V24.3A4.37,4.37,0,0,0,29.64,19.94Z"/>
    <path d="M33,27H20.21a1,1,0,0,0,0,2H33a1,1,0,0,0,0-2Z"/>
</svg>