<svg xmlns="http://www.w3.org/2000/svg" viewBox="0 0 36 36">
    <defs>
        <style>.a{fill:none;}</style>
    </defs>
    <rect class="a" width="36" height="36"/>
    <path d="M18,32.15A14.15,14.15,0,1,1,32.15,18,14.17,14.17,0,0,1,18,32.15Zm0-26A11.85,11.85,0,1,0,29.85,18,11.87,11.87,0,0,0,18,6.15Z"/>
    <path d="M15.36,24.65a1.14,1.14,0,0,1-.81-.34L10.27,20a1.15,1.15,0,0,1,0-1.63,1.17,1.17,0,0,1,1.63,0l3.44,3.45L23.71,13a1.15,1.15,0,0,1,1.63,0,1.14,1.14,0,0,1,0,1.62L16.2,24.29a1.15,1.15,0,0,1-.82.36Z"/>
</svg>