<svg xmlns="http://www.w3.org/2000/svg" viewBox="0 0 36 36">
    <defs>
        <style>.a{fill:none;}</style>
    </defs>
    <rect class="a" width="36" height="36"/>
    <path d="M31,3.75H5A1.25,1.25,0,0,0,3.75,5V31A1.25,1.25,0,0,0,5,32.25H31A1.25,1.25,0,0,0,32.25,31V5A1.25,1.25,0,0,0,31,3.75ZM16.3,22.15H14.51l-3.47-5H11v5H8.87V13.43h1.82l3.43,5h.08v-5h2.1Zm5.88,0H20.69v-.91h-.05a1.39,1.39,0,0,1-.55.71,1.64,1.64,0,0,1-.95.27,1.7,1.7,0,0,1-.88-.23,1.61,1.61,0,0,1-.59-.65,2.1,2.1,0,0,1-.21-1V17.24H19v2.83a.92.92,0,0,0,.21.63.74.74,0,0,0,.56.23.82.82,0,0,0,.42-.11.72.72,0,0,0,.3-.3.92.92,0,0,0,.11-.48v-2.8h1.56Zm2.56,0H23.18V15.61h1.56Zm2.55,0H25.73V15.61h1.56Z"/>
</svg>