<svg xmlns="http://www.w3.org/2000/svg" viewBox="0 0 36 36">
    <defs>
        <style>.a{fill:none;}</style>
    </defs>
    <rect class="a" width="36" height="36"/>
    <path d="M16.3,13.43v8.72H14.51l-3.47-5H11v5H8.87V13.43h1.82l3.43,5h.08v-5Z"/>
    <path d="M20.62,20v-2.8h1.56v4.91H20.69v-.91h-.05a1.39,1.39,0,0,1-.55.71,1.64,1.64,0,0,1-.95.27,1.7,1.7,0,0,1-.88-.23,1.61,1.61,0,0,1-.59-.65,2.1,2.1,0,0,1-.21-1V17.24H19v2.83a.92.92,0,0,0,.21.63.74.74,0,0,0,.56.23.82.82,0,0,0,.42-.11.72.72,0,0,0,.3-.3A.92.92,0,0,0,20.62,20Z"/>
    <path d="M24.74,15.61v6.54H23.18V15.61Z"/>
    <path d="M27.29,15.61v6.54H25.73V15.61Z"/>
    <path d="M31,32.25H5A1.25,1.25,0,0,1,3.75,31V5A1.25,1.25,0,0,1,5,3.75H31A1.25,1.25,0,0,1,32.25,5V31A1.25,1.25,0,0,1,31,32.25ZM6.25,29.75h23.5V6.25H6.25Z"/>
</svg>