<svg xmlns="http://www.w3.org/2000/svg" viewBox="0 0 36 36">
    <defs>
        <style>.a{fill:none;}</style>
    </defs>
    <rect class="a" width="36" height="36"/>
    <path d="M17,33.1A14.14,14.14,0,0,1,17,4.83a14.31,14.31,0,0,1,4,.58,1.11,1.11,0,0,1,.74,1.37,1.09,1.09,0,0,1-1.37.74A11.94,11.94,0,1,0,29,19a11.82,11.82,0,0,0-.48-3.36A1.1,1.1,0,0,1,30.6,15a14.39,14.39,0,0,1,.56,4A14.15,14.15,0,0,1,17,33.1Z"/>
    <path d="M17,28A9.07,9.07,0,1,1,17,9.9a9.28,9.28,0,0,1,3,.49,1.1,1.1,0,1,1-.72,2.08A7.06,7.06,0,0,0,17,12.1,6.87,6.87,0,1,0,23.9,19a6.75,6.75,0,0,0-.36-2.19,1.1,1.1,0,0,1,2.09-.7A9.07,9.07,0,0,1,17,28Z"/>
    <path d="M17.18,19.68a.9.9,0,0,1-.64-1.54L28.25,6.43a.91.91,0,0,1,1.28,0,.9.9,0,0,1,0,1.27L17.81,19.42A.89.89,0,0,1,17.18,19.68Z"/>
    <path d="M24.22,12.64a.91.91,0,0,1-.9-.79l-.53-4.22A.89.89,0,0,1,23,6.88l4.54-4.54a.88.88,0,0,1,.91-.22.92.92,0,0,1,.62.71l.67,4.09A.9.9,0,0,1,29,8a.91.91,0,0,1-1-.74l-.39-2.36-3,3,.48,3.78a.9.9,0,0,1-.78,1Z"/>
    <path d="M28.46,13.2h-.11l-4.23-.54a.9.9,0,1,1,.23-1.78l3.79.48,3-3L28.76,8a.9.9,0,0,1-.74-1,.91.91,0,0,1,1-.74l4.09.67a.9.9,0,0,1,.49,1.52L29.1,12.93A.91.91,0,0,1,28.46,13.2Z"/>
    <circle cx="17" cy="19" r="3"/>
</svg>