<?xml version="1.0" encoding="UTF-8"?>
<svg xmlns="http://www.w3.org/2000/svg" viewBox="0 0 36 36">
    <defs>
        <style>.c{fill:none;}</style>
    </defs>
    <g id="a">
        <rect class="c" width="36" height="36"/>
    </g>
    <g id="b">
        <path d="M24.54,31.66H12.56c-.69,0-1.25-.56-1.25-1.25v-2.37c0-3.2,2.28-5.81,5.09-5.81h4.3c2.81,0,5.09,2.61,5.09,5.81v2.37c0,.69-.56,1.25-1.25,1.25Z"/>
        <path d="M18.18,21.12c-2.55,0-4.62-2.07-4.62-4.62s2.07-4.62,4.62-4.62,4.62,2.07,4.62,4.62-2.07,4.62-4.62,4.62Z"/>
        <path d="M7.94,24.53h-3.94c-.69,0-1.25-.56-1.25-1.25v-1.37c0-3.2,2.28-5.81,5.09-5.81h1.6c.8,0,1.54,.4,1.98,1.06s.53,1.5,.22,2.24l-1.5,3.65c-.37,.9-1.24,1.48-2.21,1.48Z"/>
        <path d="M9.62,14.99c-2.55,0-4.62-2.07-4.62-4.62s2.07-4.62,4.62-4.62,4.62,2.07,4.62,4.62-2.07,4.62-4.62,4.62Z"/>
        <path d="M32.19,24.53h-4.11c-.47,0-.9-.26-1.11-.68l-3.03-5.92c-.2-.39-.18-.85,.05-1.22s.63-.6,1.07-.6h3.3c2.81,0,5.09,2.61,5.09,5.81v1.37c0,.69-.56,1.25-1.25,1.25Z"/>
        <path d="M26.58,14.99c-2.55,0-4.62-2.07-4.62-4.62s2.07-4.62,4.62-4.62,4.62,2.07,4.62,4.62-2.07,4.62-4.62,4.62Z"/>
    </g>
</svg>