<svg xmlns="http://www.w3.org/2000/svg" viewBox="0 0 36 36">
    <defs>
        <style>.a{fill:none;}</style>
    </defs>
    <rect class="a" width="36" height="36"/>
    <path d="M31,13.9H5a1.2,1.2,0,1,1,0-2.4H31a1.2,1.2,0,1,1,0,2.4Z"/>
    <path d="M11.5,9.9a1.2,1.2,0,0,1-1.2-1.2v-4a1.2,1.2,0,1,1,2.4,0v4A1.2,1.2,0,0,1,11.5,9.9Z"/>
    <path d="M24.8,9.9a1.2,1.2,0,0,1-1.2-1.2v-4a1.2,1.2,0,1,1,2.4,0v4A1.2,1.2,0,0,1,24.8,9.9Z"/>
    <path d="M10.31,18.9H9a1.2,1.2,0,0,1,0-2.4h1.31a1.2,1.2,0,1,1,0,2.4Z"/>
    <path d="M16,18.9H14.66a1.2,1.2,0,0,1,0-2.4H16a1.2,1.2,0,1,1,0,2.4Z"/>
    <path d="M21.63,18.9H20.32a1.2,1.2,0,1,1,0-2.4h1.31a1.2,1.2,0,0,1,0,2.4Z"/>
    <path d="M27.36,18.9H26a1.2,1.2,0,1,1,0-2.4h1.32a1.2,1.2,0,1,1,0,2.4Z"/>
    <path d="M10.31,24.9H9a1.2,1.2,0,0,1,0-2.4h1.31a1.2,1.2,0,1,1,0,2.4Z"/>
    <path d="M16,24.9H14.66a1.2,1.2,0,0,1,0-2.4H16a1.2,1.2,0,1,1,0,2.4Z"/>
    <path d="M21.63,24.9H20.32a1.2,1.2,0,1,1,0-2.4h1.31a1.2,1.2,0,0,1,0,2.4Z"/>
    <path d="M27.36,24.9H26a1.2,1.2,0,1,1,0-2.4h1.32a1.2,1.2,0,1,1,0,2.4Z"/>
    <path d="M28.84,31.4H7.16A3.45,3.45,0,0,1,3.8,27.87V9.15A3.46,3.46,0,0,1,7.16,5.62h.55a1.2,1.2,0,0,1,0,2.4H7.16a1.06,1.06,0,0,0-1,1.13V27.87a1.06,1.06,0,0,0,1,1.13H28.84a1.06,1.06,0,0,0,1-1.13V9.15a1.06,1.06,0,0,0-1-1.13h-.55a1.2,1.2,0,1,1,0-2.4h.55A3.46,3.46,0,0,1,32.2,9.15V27.87A3.45,3.45,0,0,1,28.84,31.4Z"/>
    <path d="M21,8H15a1.2,1.2,0,0,1,0-2.4h6A1.2,1.2,0,0,1,21,8Z"/>
</svg>