<svg xmlns="http://www.w3.org/2000/svg" viewBox="0 0 36 36">
    <defs>
        <style>.a{fill:none;}</style>
    </defs>
    <path d="M19.2,12.06H10.13a1.25,1.25,0,0,1,0-2.5H19.2a1.25,1.25,0,0,1,0,2.5Z"/>
    <path d="M18.62,17.73H10.13a1.25,1.25,0,1,1,0-2.5h8.49a1.25,1.25,0,0,1,0,2.5Z"/>
    <path d="M12.75,27A3.25,3.25,0,1,1,16,23.75,3.26,3.26,0,0,1,12.75,27Zm0-4.5A1.25,1.25,0,1,0,14,23.75,1.25,1.25,0,0,0,12.75,22.5Z"/>
    <rect class="a" x="24.09" y="22.19" width="2.5" height="1.34"/>
    <path class="a" d="M31.6,23.53a2.12,2.12,0,0,0-2-1.34H26.59v1.34Z"/>
    <path class="a"
          d="M25.94,10.31A2.29,2.29,0,0,0,24.26,12a2.31,2.31,0,0,0,.21,1.6,14.88,14.88,0,0,1,1.82,5.86h.3V10.26A2.41,2.41,0,0,0,25.94,10.31Z"/>
    <path class="a"
          d="M28.52,13.62a2.11,2.11,0,0,0,.28-1.07,2.29,2.29,0,0,0-2.21-2.29v9.21h.28A13.67,13.67,0,0,1,28.52,13.62Z"/>
    <path class="a" d="M23.57,22.19a2.12,2.12,0,0,0-2,1.34h2.48V22.19Z"/>
    <path class="a"
          d="M19,24.78V24.3a4.62,4.62,0,0,1,4.61-4.61h.21a12.57,12.57,0,0,0-1.52-4.91,4.79,4.79,0,0,1-.44-3.31,4.74,4.74,0,0,1,2.27-3.08v-3H6.75v24.9H24.09v-1H20.21a1.25,1.25,0,0,1,0-2.5h3.88V26H20.21A1.25,1.25,0,0,1,19,24.78Z"/>
    <path d="M19,24.3v.48A1.25,1.25,0,0,0,20.21,26H33a1.25,1.25,0,0,0,1.25-1.25V24.3a4.62,4.62,0,0,0-4.61-4.61h-.26a11.09,11.09,0,0,1,1.34-4.87,4.78,4.78,0,0,0-1.23-6,4.81,4.81,0,0,0-2.9-1V4.1a1.25,1.25,0,0,0-1.25-1.25H5.5A1.25,1.25,0,0,0,4.25,4.1V31.5A1.25,1.25,0,0,0,5.5,32.75H25.34a1.25,1.25,0,0,0,1.25-1.25V29.25H33a1.25,1.25,0,0,0,0-2.5H20.21a1.25,1.25,0,0,0,0,2.5h3.88v1H6.75V5.35H24.09v3a4.74,4.74,0,0,0-2.27,3.08,4.79,4.79,0,0,0,.44,3.31,12.57,12.57,0,0,1,1.52,4.91h-.21A4.62,4.62,0,0,0,19,24.3ZM24.26,12a2.29,2.29,0,0,1,1.68-1.7,2.41,2.41,0,0,1,.65-.05,2.29,2.29,0,0,1,2.21,2.29,2.11,2.11,0,0,1-.28,1.07,13.67,13.67,0,0,0-1.65,5.85h-.58a14.88,14.88,0,0,0-1.82-5.86A2.31,2.31,0,0,1,24.26,12Zm-.17,10.18h5.55a2.12,2.12,0,0,1,2,1.34h-10a2.12,2.12,0,0,1,2-1.34Z"/>
</svg>