<svg xmlns="http://www.w3.org/2000/svg" viewBox="0 0 36 36">
    <defs>
        <style>.a{fill:none;}</style>
    </defs>
    <rect class="a" width="36" height="36"/>
    <path d="M27.57,9.1H25.1V7.3a3.41,3.41,0,0,0-3.4-3.4H14.3a3.41,3.41,0,0,0-3.4,3.4V9.1H8.43a5,5,0,0,0-5,5V27.57a5,5,0,0,0,5,5H27.57a5,5,0,0,0,5-5V14.13A5,5,0,0,0,27.57,9.1ZM13.1,7.3a1.2,1.2,0,0,1,1.2-1.2h7.4a1.2,1.2,0,0,1,1.2,1.2V9.1H13.1Zm9,12.7A1.1,1.1,0,0,1,21,21.1H15a1.1,1.1,0,1,1,0-2.2h6A1.1,1.1,0,0,1,22.1,20ZM28,26.1H8a1.1,1.1,0,1,1,0-2.2H28a1.1,1.1,0,0,1,0,2.2Z"/>
</svg>