<svg xmlns="http://www.w3.org/2000/svg" viewBox="0 0 36 36">
    <defs>
        <style>.a{fill:none;}</style>
    </defs>
    <rect class="a" width="36" height="36"/>
    <path d="M30,32.25H22.45a1.19,1.19,0,0,1-1.2-1.19v-8.8h-6.5v8.8a1.19,1.19,0,0,1-1.2,1.19H6a1.19,1.19,0,0,1-1.2-1.19v-15a1.2,1.2,0,0,1,.38-.87l12-11.13a1.18,1.18,0,0,1,1.62,0l12,11.13a1.2,1.2,0,0,1,.38.87v15A1.19,1.19,0,0,1,30,32.25Zm-6.31-2.39h5.11V16.6L18,6.58,7.24,16.6V29.86h5.11v-8.8a1.19,1.19,0,0,1,1.2-1.19h8.9a1.19,1.19,0,0,1,1.2,1.19Z"/>
</svg>