<svg xmlns="http://www.w3.org/2000/svg" viewBox="0 0 36 36">
    <defs>
        <style>.a{fill:none;}</style>
    </defs>
    <rect class="a" width="36" height="36"/>
    <path d="M34.46,6.69,29.31,1.54a1.27,1.27,0,0,0-1.77,0L24.12,5,11,18.12l0,0a1.41,1.41,0,0,0-.24.36s0,.06,0,.08a1,1,0,0,0-.07.23l-.86,6a1.26,1.26,0,0,0,.36,1.06,1.22,1.22,0,0,0,.88.37h.18l6-.86a1,1,0,0,0,.23-.07l.08,0a1.41,1.41,0,0,0,.36-.24l0,0L31,11.88l3.43-3.42A1.27,1.27,0,0,0,34.46,6.69Zm-22,16.84.27-1.88,1.61,1.61ZM17,22.38,13.62,19,25,7.62,28.38,11ZM30.14,9.23,28.46,7.54,26.77,5.86,28.43,4.2,31.8,7.57Z"/>
    <path d="M29.25,17.72V29.25H6.75V6.75H18.26A1.25,1.25,0,0,0,19.51,5.5h0a1.25,1.25,0,0,0-1.25-1.25H5.5A1.25,1.25,0,0,0,4.25,5.5v25A1.25,1.25,0,0,0,5.5,31.75h25a1.25,1.25,0,0,0,1.25-1.25V17.72a1.25,1.25,0,0,0-1.25-1.25h0A1.25,1.25,0,0,0,29.25,17.72Z"/>
</svg>