<svg xmlns="http://www.w3.org/2000/svg" viewBox="0 0 36 36">
    <defs>
        <style>.a{fill:none;}</style>
    </defs>
    <rect class="a" width="36" height="36"/>
    <path d="M29.74,13.57a1.84,1.84,0,0,1-1.51.51l-3.38-.43L20,18.55A2.22,2.22,0,0,1,20,19a3,3,0,1,1-3-3,2.21,2.21,0,0,1,.37,0l4.95-4.95-.43-3.35a1.79,1.79,0,0,1,.52-1.5l.1-.11A14,14,0,1,0,31,19a13.88,13.88,0,0,0-1.15-5.55ZM17,28A9.07,9.07,0,1,1,17,9.9a9.28,9.28,0,0,1,3,.49,1.1,1.1,0,1,1-.72,2.08A7.06,7.06,0,0,0,17,12.1,6.87,6.87,0,1,0,23.9,19a6.75,6.75,0,0,0-.36-2.19,1.1,1.1,0,0,1,2.09-.7A9.07,9.07,0,0,1,17,28Z"/>
    <path d="M33.86,7.48a.9.9,0,0,0-.71-.61L29.68,6.3l-.57-3.47a.92.92,0,0,0-.62-.71.88.88,0,0,0-.91.22L23,6.88a.89.89,0,0,0-.25.75l.48,3.78-6.73,6.73a.9.9,0,0,0,.64,1.54.89.89,0,0,0,.63-.26l6.72-6.72,3.82.49h.11a.91.91,0,0,0,.64-.27l4.54-4.54A.9.9,0,0,0,33.86,7.48Z"/>
</svg>