<svg xmlns="http://www.w3.org/2000/svg" viewBox="0 0 36 36">
    <defs>
        <style>.a{fill:none;}</style>
    </defs>
    <rect class="a" width="36" height="36"/>
    <path d="M35,12.49A1.23,1.23,0,0,0,34,12H28.56V9.62a1.89,1.89,0,0,0-1.89-1.89H17.86V7.39A1.89,1.89,0,0,0,16,5.5H4.78A1.89,1.89,0,0,0,2.89,7.39v23a2.22,2.22,0,0,0,0,.37,1.24,1.24,0,0,0,1.22,1.52h24a1.25,1.25,0,0,0,1.19-.86l5.92-17.78A1.24,1.24,0,0,0,35,12.49ZM5.39,8h10v.34a1.89,1.89,0,0,0,1.89,1.89h8.81V12h-16a1.25,1.25,0,0,0-1.19.85L5.39,23.29ZM28.56,25.66,27.2,29.75H5.87L11,14.47H32.29Z"/>
</svg>